# xmcd
#
# Track frame offsets: 
#        150
#        12927
#        26950
#        43372
#        59727
#        76682
#        91145
#        110895
#        123972
#        141877
#        154957
#        180042
#
# Disc length: 3564 seconds
#
# Revision: 0
# Processed by: cddbd v1.5.1PL0 Copyright (c) Steve Scherf et al.
# Submitted via: ExactAudioCopy v0.95a3
#
DISCID=9e0dea0c
DTITLE=Booker T. and the M.G.압 - The Booker T. Set
DYEAR=1972
DGENRE=
TTITLE0=The horse
TTITLE1=Love child
TTITLE2=Sing a simple song
TTITLE3=Lady Madonna
TTITLE4=Mrs. Robinson
TTITLE5=This guy압 in love with you
TTITLE6=Light my fire
TTITLE7=Michelle
TTITLE8=Youre all I need to get by
TTITLE9=I았e never found a girl (to love me like you do)
TTITLE10=It압 your thing
TTITLE11=Multimedia-track incl.: video, biography and pictures
EXTD=
EXTT0=
EXTT1=
EXTT2=
EXTT3=
EXTT4=
EXTT5=
EXTT6=
EXTT7=
EXTT8=
EXTT9=
EXTT10=
EXTT11=
PLAYORDER=
